<?xml version="1.0" standalone="no"?>
<!DOCTYPE svg PUBLIC "-//W3C//DTD SVG 20010904//EN"
 "http://www.w3.org/TR/2001/REC-SVG-20010904/DTD/svg10.dtd">
<svg version="1.0" xmlns="http://www.w3.org/2000/svg"
 width="460.000000pt" height="460.000000pt" viewBox="0 0 460.000000 460.000000"
 preserveAspectRatio="xMidYMid meet">
<metadata>
Created by potrace 1.14, written by Peter Selinger 2001-2017
</metadata>
<g transform="translate(0.000000,460.000000) scale(0.100000,-0.100000)"
fill="#000000" stroke="none">
<path d="M2329 4359 c-19 -19 -20 -30 -17 -135 2 -88 6 -117 18 -124 8 -5 52
-10 97 -10 98 0 113 10 113 78 l1 47 14 -39 c8 -22 27 -53 43 -69 56 -56 172
-44 172 17 0 33 -21 47 -59 40 -47 -10 -81 12 -81 51 0 55 47 80 104 54 20 -9
29 -9 41 1 45 38 -18 94 -98 87 -40 -3 -56 -11 -84 -39 -19 -20 -39 -51 -43
-69 -7 -29 -8 -24 -9 32 -1 50 -5 70 -19 82 -37 34 -66 8 -64 -55 2 -41 2 -41
-19 -22 -11 10 -27 30 -36 45 -26 43 -49 53 -74 28z m99 -129 c24 -34 41 -64
38 -67 -7 -7 -48 38 -77 85 -11 17 -23 32 -25 32 -2 0 -4 -29 -4 -64 l0 -63
62 -6 c43 -4 65 -2 71 6 6 8 7 7 4 -3 -2 -11 -23 -16 -76 -20 -40 -3 -75 -3
-77 -1 -7 7 -5 207 2 214 4 4 14 -7 23 -22 9 -16 36 -57 59 -91z m73 23 c-3
-63 -6 -80 -11 -58 -10 39 -12 140 -4 148 15 15 19 -6 15 -90z m239 67 c21
-13 5 -24 -18 -11 -20 11 -85 -2 -108 -20 -16 -13 -26 -83 -15 -111 11 -30 77
-54 118 -44 26 7 27 6 12 -9 -14 -14 -27 -16 -67 -10 -44 6 -51 10 -72 46 -33
59 -15 122 45 157 24 14 84 15 105 2z"/>
<path d="M2120 4353 c-52 -10 -66 -46 -30 -78 15 -13 17 -22 9 -36 -12 -23 -1
-143 16 -165 9 -14 22 -15 74 -9 63 7 91 24 91 54 0 27 -21 41 -62 41 -21 0
-38 5 -38 10 0 6 13 10 28 10 39 0 56 35 35 74 -11 21 -12 31 -3 42 7 7 9 25
6 39 -6 23 -11 25 -54 24 -26 -1 -58 -4 -72 -6z m105 -33 c-3 -5 -23 -10 -43
-10 -20 0 -44 -5 -52 -10 -12 -8 -12 -10 5 -10 25 0 98 -48 90 -59 -2 -5 -22
-11 -44 -15 -47 -7 -53 -14 -45 -55 6 -30 8 -31 63 -31 40 0 52 -3 41 -10 -8
-5 -32 -10 -52 -10 -20 0 -40 -5 -43 -10 -14 -23 -25 5 -25 65 0 62 1 64 28
67 37 4 34 27 -7 47 -64 30 -49 47 47 50 27 0 41 -3 37 -9z"/>
<path d="M1980 4310 c-6 -11 -9 -24 -6 -28 2 -4 9 -52 16 -107 13 -108 20
-125 55 -125 45 0 50 21 30 133 -9 56 -24 112 -31 125 -18 27 -50 29 -64 2z
m50 -110 c11 -57 16 -108 11 -113 -9 -9 -41 139 -41 192 0 54 8 33 30 -79z"/>
<path d="M2850 4311 c-5 -11 -10 -32 -10 -48 0 -15 -7 -61 -15 -101 -17 -79
-10 -112 24 -112 30 0 40 22 62 138 18 91 19 114 9 127 -18 21 -57 19 -70 -4z
m42 -24 c-5 -7 -12 -31 -16 -55 -10 -67 -28 -144 -32 -140 -7 7 16 180 27 199
5 11 14 17 20 13 6 -3 6 -10 1 -17z"/>
<path d="M3042 4293 c-20 -8 -142 -200 -142 -222 0 -31 54 -43 74 -16 10 14
17 11 53 -20 23 -19 47 -35 55 -35 22 0 38 22 38 51 0 15 5 31 10 34 14 9 12
41 -3 54 -8 6 -15 35 -16 68 -3 75 -26 103 -69 86z m38 -85 c0 -41 -3 -59 -10
-52 -5 5 -11 22 -12 37 -3 34 -11 34 -36 0 -34 -47 -36 -17 -2 31 44 65 60 61
60 -16z m20 -88 c0 -5 -16 -3 -35 3 -19 6 -38 7 -42 4 -8 -9 27 -47 44 -47 7
0 13 -10 13 -22 0 -20 -7 -16 -48 27 -26 27 -50 49 -54 47 -9 -2 -11 12 -3 20
8 8 125 -23 125 -32z m-149 -43 c-17 -17 -24 -1 -10 25 12 21 14 21 17 4 2
-10 -1 -23 -7 -29z"/>
<path d="M3380 4296 c0 -3 9 -10 20 -16 11 -6 20 -8 20 -6 0 3 -9 10 -20 16
-11 6 -20 8 -20 6z"/>
<path d="M1777 4278 c-32 -11 -44 -46 -29 -86 6 -15 13 -51 16 -80 3 -29 11
-65 18 -80 25 -51 95 -36 84 19 l-5 27 26 -24 c28 -26 44 -29 74 -14 27 15 24
29 -18 72 -31 31 -34 40 -23 53 17 20 6 73 -22 102 -23 25 -71 29 -121 11z
m101 -30 c7 -7 12 -20 12 -30 0 -26 -22 -68 -35 -68 -6 0 -20 -6 -30 -14 -16
-11 -17 -18 -8 -55 6 -22 7 -43 2 -46 -4 -3 -13 14 -19 37 -6 24 -13 50 -16
58 -3 12 8 19 40 28 46 12 58 27 49 60 -6 26 -29 35 -55 21 -19 -10 -19 -11
-2 -30 9 -10 14 -22 11 -25 -7 -7 -66 36 -66 49 -2 23 97 35 117 15z m67 -187
c-7 -6 -65 50 -65 63 0 5 16 -5 35 -24 19 -18 32 -36 30 -39z"/>
<path d="M3430 4266 c0 -2 8 -10 18 -17 15 -13 16 -12 3 4 -13 16 -21 21 -21
13z"/>
<path d="M1565 4209 c-27 -11 -53 -25 -56 -31 -10 -16 1 -47 22 -62 12 -8 17
-20 13 -29 -3 -9 6 -48 21 -87 31 -80 41 -85 130 -51 61 23 73 40 57 76 -13
28 -20 29 -89 9 -34 -10 -27 9 10 26 48 23 46 70 -5 94 -10 5 -10 7 0 12 15 7
16 36 0 52 -17 17 -45 14 -103 -9z m75 -18 c0 -5 -18 -11 -40 -15 -42 -7 -48
-14 -27 -35 10 -11 9 -13 -6 -7 -10 3 -23 6 -28 6 -5 0 -9 6 -9 14 0 8 19 21
43 29 50 18 67 20 67 8z m30 -83 c0 -4 -13 -14 -29 -23 -39 -20 -43 -27 -30
-63 l10 -30 51 14 c87 26 69 4 -24 -29 -10 -4 -18 -11 -18 -17 0 -5 -4 -10 -9
-10 -8 0 -56 119 -49 124 1 1 15 10 31 19 32 21 34 33 7 40 -11 3 -20 10 -20
15 0 6 18 1 40 -11 22 -12 40 -25 40 -29z"/>
<path d="M3520 4206 c0 -3 9 -10 20 -16 11 -6 20 -8 20 -6 0 3 -9 10 -20 16
-11 6 -20 8 -20 6z"/>
<path d="M3630 4132 c19 -18 39 -32 43 -32 5 0 6 -3 4 -7 -3 -5 34 -44 82 -88
92 -85 277 -307 299 -359 7 -16 24 -45 37 -62 23 -30 95 -165 95 -178 0 -3 21
-49 46 -102 52 -110 114 -302 134 -414 4 -25 15 -70 23 -100 26 -97 38 -360
25 -595 -13 -248 -21 -284 -113 -565 -8 -25 -15 -52 -15 -60 0 -12 -102 -230
-131 -280 -38 -66 -82 -136 -88 -140 -4 -3 -19 -26 -34 -52 -15 -26 -45 -69
-68 -95 -53 -64 -170 -192 -188 -207 -8 -6 -37 -33 -65 -61 -28 -27 -67 -61
-87 -75 -20 -14 -59 -42 -85 -63 -62 -49 -208 -143 -254 -163 -19 -8 -80 -37
-135 -63 -87 -42 -175 -74 -280 -102 -16 -4 -55 -15 -85 -24 -102 -29 -274
-53 -410 -58 -74 -2 -115 -2 -90 0 52 5 70 17 70 47 0 33 -19 46 -67 46 -24 0
-43 5 -43 10 0 6 15 10 33 10 55 0 76 43 40 83 -17 18 -17 19 0 28 20 12 22
40 5 57 -18 18 -129 15 -156 -4 -27 -19 -28 -38 -2 -62 18 -17 19 -20 5 -32
-13 -11 -16 -8 -21 18 -9 46 -54 83 -107 89 -77 9 -83 1 -91 -132 -7 -103 -6
-119 10 -136 14 -15 14 -19 3 -19 -8 0 -23 6 -34 14 -11 7 -58 21 -105 31
-155 31 -325 90 -500 174 -89 43 -114 57 -194 109 -28 18 -55 32 -61 32 -5 0
-28 15 -50 34 -22 19 -78 65 -125 102 -162 129 -307 273 -384 382 -31 45 -61
84 -66 87 -5 3 -18 25 -28 48 -11 24 -35 65 -55 92 -19 28 -54 86 -77 130 -24
44 -46 85 -50 90 -17 23 -100 248 -129 347 -30 102 -59 278 -63 377 -1 45 -2
45 -9 -14 -4 -36 -6 16 -4 125 2 102 9 211 15 243 6 32 10 72 8 90 -2 20 -11
-12 -22 -83 -25 -151 -26 -468 -2 -615 9 -55 21 -136 27 -180 5 -44 17 -105
25 -135 25 -88 113 -320 146 -385 68 -135 112 -213 148 -260 21 -27 43 -61 50
-74 21 -41 204 -252 286 -331 44 -42 105 -95 137 -119 31 -24 57 -47 57 -52 0
-4 9 -10 19 -14 11 -3 50 -29 88 -56 37 -28 88 -61 113 -74 25 -12 82 -43 126
-69 45 -25 87 -46 93 -46 7 0 44 -14 84 -31 158 -68 290 -104 527 -145 134
-22 564 -19 700 6 157 28 294 58 321 69 13 6 88 35 167 66 148 58 336 157 433
228 31 23 69 50 85 59 123 74 429 391 514 534 14 23 41 66 61 95 55 82 156
284 190 379 61 173 97 297 104 365 10 86 9 80 25 195 20 139 18 438 -4 590
-25 180 -44 262 -83 375 -20 55 -42 120 -50 145 -19 58 -80 187 -104 222 -11
14 -19 32 -19 40 0 20 -164 265 -206 308 -19 20 -34 41 -34 48 0 18 -281 293
-293 285 -6 -3 -7 -1 -3 5 4 6 -4 16 -16 23 -13 6 -34 21 -48 34 -14 12 -43
34 -65 50 l-40 27 35 -30z m171 -139 c13 -16 12 -17 -3 -4 -17 13 -22 21 -14
21 2 0 10 -8 17 -17z m-1717 -3553 c14 -5 26 -16 26 -25 0 -14 -3 -14 -24 0
-14 9 -37 15 -53 13 -27 -3 -28 -5 -35 -78 -9 -98 -8 -102 44 -98 40 3 45 6
66 48 21 41 21 27 1 -28 -10 -27 -49 -43 -96 -40 l-35 2 6 81 c3 44 6 92 6
108 0 24 4 27 34 27 19 0 46 -4 60 -10z m221 1 c-6 -6 -30 -11 -55 -13 -36 -3
-41 -5 -25 -13 35 -15 85 -57 79 -66 -3 -5 -18 -9 -33 -9 -36 0 -51 -17 -51
-57 l0 -33 57 0 c72 0 58 -16 -19 -22 l-58 -5 0 61 c0 60 1 62 31 73 27 11 30
15 19 28 -7 8 -18 15 -24 15 -7 0 -21 7 -32 15 -16 13 -17 16 -4 25 19 13 128
14 115 1z m-221 -72 c12 -34 1 -76 -24 -89 -19 -10 -20 -7 -20 55 0 58 2 66
17 63 10 -2 22 -15 27 -29z m104 -178 c7 -4 -32 -7 -86 -8 -80 0 -89 1 -53 8
50 10 83 36 103 82 l13 32 5 -53 c3 -29 11 -57 18 -61z"/>
<path d="M1390 4129 c-72 -31 -77 -48 -36 -127 19 -37 39 -84 46 -105 20 -66
94 -60 89 7 -2 18 5 44 16 60 29 43 26 120 -6 150 -35 35 -58 38 -109 15z m65
-17 c41 -29 45 -99 9 -132 -21 -21 -24 -30 -19 -62 8 -44 -6 -50 -24 -12 -10
23 -9 30 7 48 11 12 27 35 35 52 14 28 14 32 -4 61 -17 26 -24 30 -42 24 -17
-7 -22 -17 -22 -42 1 -19 4 -44 9 -56 14 -43 -9 -23 -29 24 -11 26 -21 51 -23
55 -3 7 66 47 83 47 6 1 15 -3 20 -7z m-5 -72 c0 -5 -4 -10 -10 -10 -5 0 -10
5 -10 10 0 6 5 10 10 10 6 0 10 -4 10 -10z"/>
<path d="M1202 4038 c-7 -7 -12 -22 -12 -35 0 -20 -2 -21 -25 -11 -19 8 -28 8
-40 -2 -30 -25 -13 -59 44 -90 17 -9 21 -20 21 -66 0 -30 5 -64 10 -75 12 -22
52 -25 68 -6 6 7 33 24 61 37 78 38 78 62 0 110 -46 28 -49 33 -49 71 0 22 -5
49 -10 60 -12 21 -50 25 -68 7z m40 -123 c-3 -111 1 -121 42 -90 17 13 17 15
2 30 -28 29 -17 36 19 13 41 -27 43 -34 13 -44 -13 -4 -37 -17 -54 -30 -17
-13 -34 -24 -37 -24 -4 0 -7 56 -7 125 0 93 3 125 13 125 9 0 11 -26 9 -105z
m-46 8 c-8 -8 -56 21 -56 34 0 10 9 7 30 -8 16 -13 28 -24 26 -26z"/>
<path d="M963 3882 c-64 -45 -74 -69 -43 -94 12 -10 28 -18 36 -18 8 0 14 -10
14 -24 0 -13 9 -35 20 -48 12 -12 30 -38 40 -55 24 -40 42 -41 89 -6 75 58 91
92 51 113 -16 9 -27 6 -54 -15 -42 -32 -64 -14 -24 19 14 12 28 28 31 38 7 20
-22 48 -51 48 -20 0 -21 2 -10 20 10 15 10 25 2 38 -18 28 -46 24 -101 -16z
m33 -37 c-34 -29 -37 -34 -20 -38 12 -4 9 -5 -9 -4 -40 3 -37 17 12 55 55 42
69 31 17 -13z m84 -42 c2 -2 -10 -15 -28 -29 -38 -30 -40 -43 -9 -72 l24 -22
46 24 c31 17 44 20 41 11 -3 -8 -13 -17 -22 -20 -10 -2 -29 -16 -44 -30 l-26
-24 -32 49 c-30 47 -34 80 -10 80 17 0 11 38 -7 44 -10 2 0 2 22 -1 22 -3 42
-8 45 -10z"/>
<path d="M3705 3625 c-99 -29 -186 -58 -193 -65 -17 -15 -14 -35 27 -171 17
-58 31 -117 30 -130 0 -16 -5 -9 -14 21 -79 272 -78 270 -120 270 -11 0 -67
-14 -125 -31 -58 -17 -135 -39 -171 -48 -104 -25 -113 -40 -83 -136 8 -27 19
-72 25 -100 23 -123 52 -206 74 -221 21 -14 34 -12 146 21 67 19 154 42 192
50 39 8 74 20 79 27 4 7 8 31 8 53 l0 40 18 -35 c10 -21 26 -36 39 -38 12 -2
69 10 126 27 58 17 138 37 178 45 76 16 109 37 109 69 0 22 -98 363 -112 390
-13 24 -31 21 -233 -38z m215 28 c-1 -19 -18 -29 -65 -40 -178 -39 -271 -65
-283 -77 -12 -12 -12 -25 -3 -82 15 -83 58 -233 71 -249 12 -15 3 -45 -14 -45
-11 0 -46 103 -46 137 0 10 -14 67 -32 127 -22 77 -28 113 -21 124 5 9 43 23
84 33 41 9 119 30 174 47 104 32 135 37 135 25z m-4 -103 c28 -105 57 -226 58
-245 1 -23 -25 -37 -110 -61 -117 -33 -196 -46 -206 -36 -17 17 -79 245 -76
281 3 38 11 44 88 64 134 36 177 45 205 43 26 -1 30 -6 41 -46z m-468 -37 c-2
-11 -14 -19 -28 -21 -36 -4 -153 -30 -245 -56 -73 -20 -80 -24 -83 -49 -2 -15
3 -49 11 -75 8 -26 24 -81 36 -122 12 -41 28 -87 35 -102 12 -22 12 -30 1 -44
-12 -17 -13 -16 -23 3 -11 21 -51 159 -59 203 -2 14 -11 52 -20 86 -22 88 -19
95 57 115 130 34 186 50 225 64 58 20 97 19 93 -2z m-8 -53 c5 -8 12 -37 18
-65 5 -27 20 -90 33 -138 29 -107 32 -102 -104 -140 -125 -35 -195 -44 -201
-26 -36 113 -76 260 -76 277 0 28 31 47 100 62 30 6 84 20 120 30 75 21 100
21 110 0z"/>
<path d="M3807 3523 c-4 -3 -7 -31 -7 -62 0 -31 -3 -66 -6 -79 -6 -22 -8 -22
-33 16 -49 72 -70 94 -86 88 -19 -7 -19 -15 -1 -79 8 -29 17 -69 21 -89 3 -23
12 -38 20 -38 24 0 27 18 10 65 -20 59 -19 76 2 45 75 -112 93 -114 93 -6 1
78 10 74 30 -11 9 -41 16 -53 31 -53 24 0 24 -6 -7 112 -21 75 -31 98 -44 98
-9 0 -20 -3 -23 -7z"/>
<path d="M3280 3383 c-30 -8 -58 -17 -62 -21 -9 -9 46 -197 58 -197 5 0 39 9
76 19 45 13 65 23 61 31 -3 10 -13 11 -36 4 -41 -12 -87 -12 -87 0 0 5 -2 16
-6 24 -3 10 8 18 41 27 43 12 66 33 52 46 -3 3 -27 -1 -55 -9 -49 -15 -50 -15
-60 8 -10 21 -8 24 16 29 50 12 82 28 82 42 0 17 -9 17 -80 -3z"/>
<path d="M649 3592 c-37 -34 -42 -44 -45 -92 -5 -78 42 -143 114 -156 76 -15
165 65 165 147 0 53 -16 80 -66 112 -63 41 -116 38 -168 -11z m159 -27 c47
-52 45 -98 -8 -155 -36 -39 -42 -42 -77 -37 -25 4 -48 17 -65 37 -28 31 -38
80 -16 80 6 0 9 -3 5 -6 -9 -10 20 -61 45 -78 33 -23 54 -20 93 16 44 39 48
92 11 135 -20 22 -31 27 -66 26 -43 -2 -70 -16 -70 -38 0 -7 -7 -18 -15 -25
-30 -25 -16 19 15 50 24 24 40 30 73 30 35 0 47 -6 75 -35z m-18 -51 c19 -58
-28 -102 -79 -75 -50 27 -50 84 1 106 43 17 65 9 78 -31z"/>
<path d="M2825 3389 c-71 -21 -150 -44 -175 -50 -25 -6 -52 -20 -61 -30 -19
-21 -16 -43 48 -277 30 -111 40 -136 59 -144 18 -9 53 -2 171 30 81 23 165 44
186 47 24 4 43 14 53 30 14 21 14 30 1 82 -9 32 -23 87 -31 123 -47 187 -67
231 -105 229 -9 0 -74 -18 -146 -40z m153 5 c-3 -17 -86 -43 -197 -64 -91 -16
-148 -39 -154 -61 -3 -11 1 -39 8 -62 7 -23 21 -69 30 -102 9 -33 26 -86 36
-118 19 -54 19 -77 -1 -77 -5 0 -19 33 -31 73 -11 39 -25 83 -30 97 -5 14 -18
68 -29 120 -23 109 -22 112 55 128 28 5 104 26 170 45 140 41 148 42 143 21z
m-8 -49 c0 -3 18 -68 40 -144 22 -76 40 -145 40 -154 0 -10 -21 -22 -62 -36
-87 -29 -250 -63 -259 -54 -4 5 -25 70 -46 145 -49 167 -47 173 47 198 162 44
240 59 240 45z"/>
<path d="M2815 3259 c-93 -30 -89 -27 -75 -44 9 -10 18 -11 37 -4 13 5 28 7
33 4 7 -5 19 -50 35 -131 5 -26 10 -31 26 -27 14 4 18 11 14 22 -19 49 -37
131 -32 145 4 9 16 16 27 16 13 0 20 7 20 20 0 24 -7 24 -85 -1z"/>
<path d="M456 3374 c-25 -24 -19 -40 27 -75 23 -18 47 -38 52 -44 21 -25 89
-65 109 -65 22 0 86 71 86 95 0 32 -63 49 -74 20 -3 -8 -10 -15 -16 -15 -12 0
-59 31 -108 73 -37 31 -54 34 -76 11z m47 -34 c35 -32 49 -44 90 -75 36 -27
38 -27 57 -10 11 10 20 24 20 32 0 7 5 13 11 13 6 0 9 -3 7 -7 -25 -53 -43
-83 -49 -83 -5 0 -40 27 -80 60 -39 33 -75 60 -80 60 -5 0 -9 7 -9 15 0 20 6
19 33 -5z"/>
<path d="M2465 3295 c-101 -33 -292 -85 -311 -85 -35 0 -47 -25 -42 -83 6 -50
5 -51 -6 -16 -13 43 -33 69 -53 69 -8 0 -86 -20 -173 -45 -87 -25 -167 -45
-177 -45 -28 0 -63 -28 -63 -50 0 -11 12 -59 26 -107 14 -49 38 -132 54 -185
15 -53 31 -101 35 -107 10 -18 38 -13 199 34 85 25 163 45 173 45 28 0 63 29
63 51 0 12 -16 73 -35 136 -19 64 -35 127 -34 142 1 19 5 13 16 -24 56 -190
75 -244 91 -259 18 -16 28 -14 177 29 86 25 167 45 179 45 33 0 66 28 66 56 0
14 -9 58 -19 97 -11 40 -32 121 -47 180 -19 78 -33 112 -48 122 -24 17 -19 17
-71 0z m49 -14 c10 -15 -5 -40 -22 -38 -16 1 -66 -10 -230 -50 -34 -9 -72 -23
-84 -33 l-22 -17 38 -139 c20 -76 41 -152 46 -168 5 -16 7 -33 4 -37 -9 -16
-22 -9 -26 14 -3 12 -26 93 -52 179 -25 87 -46 164 -46 172 0 18 30 36 60 36
23 0 300 76 308 85 8 8 20 6 26 -4z m-17 -59 c14 -9 96 -290 90 -307 -5 -12
-144 -53 -254 -75 -78 -16 -88 -9 -97 65 -3 30 -10 65 -15 77 -5 13 -17 48
-26 79 -23 77 -14 91 77 116 57 16 173 45 208 52 3 0 10 -3 17 -7z m-437 -66
c0 -18 -15 -36 -29 -36 -30 0 -267 -57 -297 -72 -38 -18 -40 -41 -11 -140 14
-46 28 -103 31 -128 4 -25 13 -55 21 -66 12 -18 12 -25 0 -40 -13 -18 -14 -17
-20 11 -4 17 -27 98 -51 181 -45 155 -51 189 -35 198 5 4 44 13 88 21 43 9
119 28 168 44 82 27 135 37 135 27z m-9 -86 c64 -214 75 -269 57 -286 -13 -12
-95 -36 -232 -68 -46 -11 -73 -13 -81 -6 -6 5 -17 33 -23 62 -7 29 -19 82 -28
118 -26 111 -27 116 -10 133 25 25 223 77 280 74 22 -2 31 -8 37 -27z"/>
<path d="M2321 3114 c-36 -30 -38 -43 -13 -73 12 -15 33 -23 70 -28 55 -6 78
-27 51 -44 -19 -12 -66 -11 -74 1 -8 13 -45 13 -45 1 0 -16 51 -51 74 -51 26
0 85 35 92 55 19 49 -27 85 -107 85 -28 0 -39 4 -39 15 0 20 48 31 71 16 39
-24 55 1 21 32 -27 24 -66 21 -101 -9z"/>
<path d="M1934 2995 c-7 -19 -14 -41 -14 -50 0 -23 -13 -18 -45 15 -25 26 -75
42 -75 24 0 -3 22 -26 49 -50 30 -27 54 -59 62 -82 14 -46 21 -53 38 -43 11 7
11 15 2 44 -10 30 -9 44 9 93 24 70 25 84 4 84 -8 0 -22 -16 -30 -35z"/>
<path d="M369 3214 c-52 -23 -71 -61 -66 -135 6 -76 38 -115 103 -125 92 -13
152 29 169 119 9 49 -24 123 -62 138 -45 18 -105 19 -144 3z m137 -48 c41 -41
47 -97 14 -139 -11 -14 -20 -30 -20 -35 0 -25 -76 -30 -120 -7 -25 13 -60 60
-60 80 0 16 21 1 34 -23 28 -55 93 -67 133 -24 49 52 50 96 3 140 -51 47 -118
31 -142 -34 -13 -37 -28 -45 -28 -16 0 20 25 60 48 80 9 6 36 12 60 12 37 0
50 -6 78 -34z m-26 -36 c11 -11 20 -29 20 -40 0 -26 -34 -60 -60 -60 -28 0
-70 47 -63 68 18 52 68 67 103 32z"/>
<path d="M152 3075 c-7 -14 -12 -31 -12 -38 1 -7 7 3 16 22 17 39 13 54 -4 16z"/>
<path d="M3855 3046 c-77 -23 -150 -45 -163 -50 -36 -12 -43 -37 -26 -97 9
-30 19 -75 24 -101 11 -59 49 -197 61 -220 16 -29 50 -30 142 -3 48 14 93 25
100 25 6 0 49 10 95 22 98 25 114 44 100 112 -13 57 -48 191 -65 251 -8 28
-18 61 -22 75 -12 40 -79 37 -246 -14z m203 17 c-2 -10 -12 -19 -23 -21 -11
-2 -76 -18 -145 -37 -69 -18 -137 -36 -152 -39 -15 -3 -29 -15 -33 -25 -5 -17
66 -283 86 -322 10 -19 -6 -48 -20 -34 -11 12 -46 127 -71 240 -10 44 -21 92
-25 106 -8 32 12 50 74 65 25 7 98 28 161 47 136 41 153 44 148 20z m31 -194
c36 -126 41 -153 30 -163 -13 -11 -122 -47 -251 -81 -57 -16 -58 -15 -86 80
-66 220 -64 206 -47 232 9 13 25 23 38 23 12 0 67 13 122 29 159 47 144 56
194 -120z"/>
<path d="M3940 2931 c-5 -11 -10 -31 -10 -45 0 -32 -3 -32 -44 -1 -32 24 -66
33 -66 17 0 -12 52 -58 73 -65 18 -7 16 -16 -28 -119 -4 -10 -3 -18 2 -18 21
0 52 32 58 60 8 37 14 37 49 1 18 -19 34 -27 47 -24 28 8 24 16 -29 59 l-48
38 18 48 c10 27 18 53 18 58 0 18 -29 11 -40 -9z"/>
<path d="M101 2924 c-17 -55 -33 -124 -36 -154 l-5 -55 14 65 c8 36 26 103 39
150 14 47 24 87 22 89 -2 1 -17 -41 -34 -95z"/>
<path d="M3387 2920 c-92 -27 -175 -54 -183 -61 -11 -9 -14 -26 -9 -68 l5 -56
-14 43 c-17 52 -33 72 -56 72 -41 0 -376 -103 -395 -121 -19 -19 -19 -20 -1
-91 40 -156 89 -304 107 -322 18 -20 19 -20 111 7 51 14 129 34 173 42 92 19
131 37 140 64 3 11 -8 68 -25 126 -17 59 -30 116 -28 128 2 11 18 -34 37 -101
22 -79 41 -128 55 -140 21 -20 21 -20 91 0 39 11 101 26 138 34 122 25 176 44
188 66 9 17 7 39 -6 97 -26 113 -76 293 -86 314 -15 26 -57 21 -242 -33z m207
32 c14 -23 -8 -31 -242 -89 -88 -22 -103 -29 -108 -49 -4 -13 13 -87 39 -176
39 -136 49 -205 26 -181 -14 14 -99 319 -99 356 l0 36 73 21 c128 38 241 71
267 80 33 11 38 11 44 2z m-1 -99 c14 -45 63 -208 73 -244 7 -24 -12 -34 -126
-69 -140 -43 -190 -54 -200 -44 -4 5 -12 32 -18 59 -5 28 -22 88 -36 135 -14
47 -26 91 -26 98 0 21 39 52 68 53 15 0 70 13 122 29 52 15 103 29 112 29 11
1 21 -14 31 -46z m-463 -43 c-6 -11 -20 -20 -31 -20 -11 0 -71 -14 -132 -31
-62 -17 -129 -35 -149 -40 -33 -9 -38 -14 -38 -39 0 -16 13 -76 28 -132 48
-170 54 -200 43 -211 -6 -6 -15 9 -25 44 -8 30 -27 95 -42 144 -40 136 -50
183 -38 195 6 6 35 17 65 25 29 8 106 30 169 49 63 19 125 35 138 35 20 1 21
-2 12 -19z m11 -114 c11 -39 29 -101 40 -137 17 -58 24 -109 16 -109 -1 0 -63
-18 -137 -40 -173 -51 -186 -51 -199 -2 -74 284 -74 290 -5 306 21 4 84 21
139 35 55 15 106 25 112 23 7 -2 22 -36 34 -76z"/>
<path d="M3415 2800 c-39 -13 -49 -21 -47 -36 6 -32 44 -159 51 -166 9 -10
131 8 144 21 23 23 -8 32 -58 17 -55 -17 -61 -16 -67 19 -5 23 -1 27 40 38 25
8 48 19 50 25 5 15 -46 16 -82 2 -21 -7 -26 -6 -31 10 -9 28 -1 36 50 49 28 7
45 17 45 26 0 19 -30 18 -95 -5z"/>
<path d="M2910 2663 c0 -5 12 -51 26 -103 l27 -96 51 9 c73 14 76 15 76 33 0
17 1 17 -86 -3 -19 -4 -23 1 -28 39 -14 89 -28 128 -47 128 -11 0 -19 -3 -19
-7z"/>
<path d="M201 2941 c-16 -16 -21 -34 -21 -69 0 -52 14 -73 59 -87 13 -4 35
-20 49 -36 18 -23 32 -29 62 -29 48 0 75 23 87 76 17 72 -23 134 -87 134 -11
0 -38 -16 -60 -36 -22 -20 -40 -32 -40 -26 0 5 7 15 16 22 8 8 14 25 12 39 -4
35 -48 41 -77 12z m30 -35 c-31 -33 -24 -60 15 -64 23 -2 37 3 50 20 11 13 28
22 39 22 11 -1 25 -2 32 -3 36 -3 58 -72 31 -99 -7 -7 -8 -12 -4 -12 5 0 3 -7
-4 -15 -27 -32 -100 -2 -100 41 0 12 6 9 21 -10 22 -27 64 -33 64 -9 0 7 6 18
13 25 18 18 15 35 -10 52 -13 10 -27 12 -37 7 -9 -5 -18 -9 -21 -9 -13 0 -60
-26 -60 -34 0 -15 -30 -8 -51 13 -15 15 -19 28 -14 47 8 34 23 52 43 52 12 0
10 -5 -7 -24z m139 -76 c0 -12 -28 -25 -36 -17 -9 9 6 27 22 27 8 0 14 -5 14
-10z"/>
<path d="M922 2859 c-46 -10 -102 -29 -125 -40 -106 -54 -257 -166 -257 -192
0 -5 -7 -15 -14 -21 -25 -19 -83 -131 -97 -187 -8 -31 -13 -104 -12 -174 0
-97 4 -130 21 -172 25 -61 99 -165 147 -208 l34 -30 -34 -50 c-19 -27 -39 -71
-46 -97 -6 -27 -15 -50 -19 -53 -18 -11 -33 -145 -27 -241 13 -228 119 -415
284 -501 252 -132 504 -123 810 29 13 6 31 19 41 28 10 9 38 31 62 49 54 38
178 186 187 221 3 14 13 39 21 55 67 133 69 371 3 519 -11 27 -21 53 -21 58 0
16 -60 98 -107 145 -114 113 -235 157 -518 188 -230 24 -299 50 -293 108 4 46
58 72 119 58 120 -28 279 -4 338 51 85 80 101 111 101 198 0 82 -16 115 -89
182 -63 57 -69 60 -196 88 -67 15 -224 10 -313 -11z m305 -128 c86 -22 124
-48 148 -97 17 -36 17 -39 -1 -83 -16 -39 -27 -50 -75 -74 l-56 -28 -83 15
c-107 21 -149 20 -203 -3 -50 -21 -113 -80 -128 -118 -23 -60 -5 -124 53 -192
39 -46 146 -75 358 -99 115 -13 201 -29 252 -46 100 -32 110 -38 175 -100 123
-114 182 -364 125 -526 -40 -115 -66 -155 -151 -241 -71 -71 -101 -93 -173
-128 -110 -52 -180 -71 -293 -78 -162 -10 -330 51 -409 147 -21 25 -43 53 -51
62 -22 27 -33 51 -61 134 -21 64 -27 98 -27 179 -1 97 3 118 38 215 20 55 125
165 172 181 41 13 62 7 98 -31 42 -44 45 -108 9 -207 -56 -152 -32 -292 59
-350 87 -55 202 -67 307 -32 83 27 131 59 173 114 50 65 63 129 46 219 -12 63
-18 76 -59 117 -65 65 -151 91 -359 107 -53 5 -86 12 -88 19 -3 9 4 11 25 7
17 -3 72 -7 124 -8 93 -1 93 -1 93 24 0 24 -3 25 -115 37 -162 17 -208 29
-295 74 -42 21 -83 39 -91 39 -22 0 -17 -43 8 -65 35 -29 3 -31 -41 -2 -63 42
-111 98 -147 172 -33 67 -34 73 -34 190 0 104 3 126 23 166 42 87 98 152 171
200 96 64 110 70 196 90 99 23 199 23 287 0z m113 -1116 c53 -27 78 -125 47
-184 -20 -40 -112 -81 -181 -81 -134 0 -188 106 -134 261 l11 32 112 -6 c76
-3 123 -11 145 -22z"/>
<path d="M1305 2592 c-6 -4 -15 -16 -21 -27 -13 -22 -12 -22 -204 -10 -126 8
-148 3 -236 -52 -60 -38 -104 -128 -104 -210 0 -37 6 -67 16 -81 26 -38 39
-21 40 54 0 56 6 78 28 116 58 101 102 115 322 103 l134 -7 30 30 c16 17 30
39 30 50 0 23 -22 44 -35 34z"/>
<path d="M1485 1960 c-22 -24 -19 -28 60 -72 110 -61 180 -201 180 -358 0 -96
-30 -200 -71 -249 -13 -16 -24 -33 -24 -37 0 -13 -83 -94 -96 -94 -6 0 -18 -8
-28 -19 -9 -10 -53 -35 -97 -56 -65 -30 -96 -39 -164 -44 -47 -4 -90 -12 -97
-19 -18 -18 2 -46 35 -50 30 -4 197 35 211 49 6 5 19 9 30 9 71 2 254 163 314
276 20 39 45 178 45 254 -1 185 -68 308 -216 396 -32 19 -59 34 -61 34 -2 0
-11 -9 -21 -20z"/>
<path d="M882 1798 c-7 -7 -9 -27 -6 -52 4 -27 -3 -78 -20 -147 -14 -59 -26
-129 -26 -155 0 -50 41 -166 60 -172 5 -2 10 -9 10 -16 0 -31 108 -106 153
-106 48 0 36 19 -53 83 -60 44 -83 81 -99 160 -14 71 -7 139 25 253 20 71 18
116 -6 142 -24 26 -23 25 -38 10z"/>
<path d="M2268 2661 c-14 -5 -46 -19 -70 -32 -113 -61 -119 -82 -153 -584 -14
-214 -30 -437 -36 -495 -14 -159 -12 -256 7 -293 40 -78 87 -107 177 -107 53
0 71 5 110 30 61 38 82 85 98 220 8 64 16 99 23 97 6 -2 67 -24 136 -49 222
-81 358 -121 388 -113 15 3 50 20 78 36 44 25 54 37 73 85 11 31 21 70 21 88
0 41 -37 114 -99 196 l-49 65 25 43 c33 57 28 111 -17 177 -35 51 -78 75 -133
75 -35 0 -50 12 -95 77 -12 18 -22 35 -22 38 0 3 -28 48 -62 100 -61 91 -87
132 -156 240 -51 82 -165 131 -244 106z m152 -148 c21 -21 45 -54 55 -73 17
-33 95 -157 181 -284 57 -85 85 -136 74 -136 -9 0 -55 65 -104 144 -11 17 -46
70 -78 119 -32 48 -58 90 -58 92 0 10 -69 112 -84 125 -13 10 -20 10 -29 1
-14 -14 8 -58 66 -135 20 -28 37 -55 37 -62 0 -6 18 -36 40 -66 22 -31 64 -96
94 -144 l54 -88 -70 -19 c-66 -17 -72 -17 -89 -1 -11 9 -19 23 -19 29 0 7 -29
55 -64 108 l-63 95 -13 -152 c-6 -83 -14 -153 -16 -155 -12 -13 -13 18 -4 120
17 199 11 264 -23 230 -6 -6 -16 -90 -24 -188 -7 -97 -15 -179 -17 -181 -3 -2
-23 -6 -46 -9 -27 -4 -51 -16 -71 -35 l-30 -30 6 38 c5 36 45 570 45 601 0 23
71 93 104 101 53 14 106 -2 146 -45z m25 -563 c-15 -24 -35 -9 -35 26 l0 37
21 -27 c11 -14 17 -30 14 -36z m466 29 c33 -50 21 -102 -29 -128 -32 -16 -246
-80 -326 -96 -38 -8 -27 -17 66 -50 81 -29 108 -28 108 3 0 26 17 39 61 47 35
6 37 5 64 -42 16 -26 45 -72 67 -102 43 -62 50 -106 18 -116 -22 -7 -59 3
-235 67 -60 22 -150 52 -200 68 -49 15 -121 40 -159 54 -73 29 -111 31 -111 6
0 -10 26 -23 75 -39 41 -13 152 -50 245 -81 418 -140 392 -134 424 -94 38 48
29 82 -52 208 -21 32 -36 60 -34 63 7 7 50 -53 92 -130 43 -78 42 -117 -2
-161 -35 -36 -72 -34 -185 10 -51 20 -115 42 -143 49 -27 7 -117 38 -198 69
-82 31 -156 56 -165 56 -29 0 -119 47 -125 65 -12 30 -7 69 13 102 14 24 32
36 71 47 29 9 61 16 71 16 10 0 105 25 210 56 106 31 213 59 238 64 59 11 130
6 141 -11z m-711 -353 c53 -13 53 -12 43 -167 -6 -95 -13 -144 -21 -147 -7 -2
-19 -11 -28 -19 -25 -25 7 -38 45 -19 33 18 37 31 46 151 7 112 14 155 23 155
5 0 -6 -189 -17 -292 -2 -15 -71 -48 -100 -48 -84 0 -96 36 -82 252 6 90 11
169 11 177 0 10 9 7 28 -11 15 -14 38 -28 52 -32z"/>
<path d="M2855 1960 c-3 -6 -4 -19 0 -29 8 -26 -14 -40 -76 -51 -126 -21 -319
-85 -319 -106 0 -23 42 -17 218 35 230 68 222 64 222 104 0 44 -29 74 -45 47z"/>
<path d="M3716 1205 c-24 -22 -27 -31 -24 -77 3 -47 6 -54 33 -68 17 -8 32
-19 33 -23 15 -33 57 -67 84 -67 71 0 116 61 103 139 -6 34 -11 40 -48 52 -23
8 -53 26 -65 41 -31 37 -79 38 -116 3z m88 -31 c27 -27 18 -36 -14 -13 -24 18
-32 20 -45 9 -20 -16 -19 -39 2 -62 22 -25 8 -36 -17 -13 -22 20 -25 46 -10
76 13 23 62 26 84 3z m74 -44 c57 -35 56 -83 -3 -114 -41 -22 -60 -16 -84 26
-12 21 -12 30 -2 57 17 40 33 41 19 0 -13 -37 3 -79 30 -79 26 0 62 28 62 49
0 19 -24 44 -52 54 -18 6 -25 27 -10 27 4 0 22 -9 40 -20z m-12 -51 c10 -17
-13 -36 -27 -22 -12 12 -4 33 11 33 5 0 12 -5 16 -11z"/>
<path d="M3558 1037 c-28 -23 -48 -64 -48 -98 0 -11 15 -36 34 -56 28 -31 41
-38 73 -38 34 0 39 -2 35 -20 -2 -12 4 -27 12 -35 26 -20 60 1 86 55 31 65 22
106 -39 167 -41 41 -54 48 -87 48 -25 -1 -49 -9 -66 -23z m103 -27 c29 -24 17
-26 -21 -4 -15 10 -35 14 -44 11 -22 -9 -38 -55 -31 -89 6 -27 10 -29 48 -26
34 2 44 8 57 33 8 17 16 32 17 34 6 9 32 -22 37 -45 7 -25 -30 -121 -41 -110
-3 3 2 22 11 41 10 20 15 43 12 52 -6 13 -9 13 -29 0 -12 -8 -37 -18 -55 -22
-27 -6 -38 -3 -58 16 -69 65 24 170 97 109z"/>
<path d="M3368 884 c-15 -8 -32 -23 -38 -34 -15 -28 -12 -112 5 -137 17 -24
78 -48 101 -39 11 4 12 2 5 -12 -10 -19 7 -52 27 -52 22 0 82 63 91 96 12 44
5 69 -37 124 -53 70 -97 86 -154 54z m82 -25 c0 -6 7 -17 15 -26 9 -8 13 -18
10 -22 -4 -3 -15 4 -26 17 -23 30 -55 26 -82 -9 -17 -24 -18 -30 -6 -55 10
-20 22 -29 42 -31 27 -2 38 6 71 52 21 29 46 4 46 -46 0 -30 -7 -47 -30 -71
-17 -17 -33 -29 -36 -26 -3 3 6 17 20 31 41 41 33 106 -8 68 -22 -20 -71 -32
-93 -24 -22 9 -44 60 -37 88 3 14 18 34 31 45 27 21 83 27 83 9z"/>
<path d="M3138 733 c-16 -20 -38 -89 -38 -121 0 -24 34 -47 55 -38 10 3 22
-11 37 -45 13 -27 31 -52 41 -55 18 -6 57 20 57 38 0 5 -19 42 -42 81 -25 44
-41 83 -40 99 2 27 -20 58 -42 58 -7 0 -20 -8 -28 -17z m33 -36 c-16 -16 -14
-50 3 -44 10 4 16 -5 20 -28 4 -18 18 -49 31 -69 26 -38 31 -56 17 -56 -5 0
-19 23 -32 50 -30 64 -45 77 -67 59 -15 -13 -16 -10 -9 30 8 53 23 84 37 75 7
-4 7 -10 0 -17z"/>
<path d="M3358 629 c-21 -12 -24 -49 -6 -67 39 -39 100 17 63 58 -20 22 -32
24 -57 9z m23 -28 c-8 -5 -10 -14 -6 -22 6 -11 5 -11 -5 -2 -14 12 -6 33 13
33 8 0 7 -3 -2 -9z"/>
<path d="M2840 599 c-69 -31 -75 -35 -78 -57 -2 -15 6 -27 28 -40 26 -16 28
-21 16 -31 -12 -10 -18 -7 -31 18 -22 44 -66 64 -120 55 -56 -8 -79 -32 -72
-76 28 -165 38 -194 71 -209 20 -10 33 -7 80 17 57 29 78 58 79 112 l0 27 13
-30 c7 -16 13 -38 14 -47 0 -29 29 -37 74 -22 83 29 113 55 100 88 -8 21 -34
27 -71 17 -44 -13 -51 0 -11 19 41 19 51 62 19 82 -15 9 -18 19 -14 40 6 31
-11 58 -36 58 -9 -1 -36 -10 -61 -21z m61 -23 c-7 -8 -26 -18 -42 -21 -32 -7
-49 -25 -23 -25 33 0 94 -23 94 -36 0 -8 -11 -16 -24 -20 -14 -3 -32 -14 -41
-24 -15 -17 -15 -21 -1 -49 l16 -31 50 19 c64 24 66 7 3 -21 -27 -11 -51 -25
-54 -30 -9 -13 -16 0 -27 48 -6 21 -13 47 -17 56 -5 13 0 21 19 29 24 11 36
37 19 40 -5 1 -21 3 -37 5 -28 3 -54 19 -45 28 10 9 95 45 108 46 11 0 11 -3
2 -14z m-177 -73 c3 -10 9 -25 13 -33 4 -10 1 -10 -11 3 -10 9 -23 17 -31 17
-7 0 -15 5 -17 12 -3 8 -14 3 -30 -13 l-26 -26 18 -66 c23 -83 26 -87 54 -87
38 0 59 33 58 92 -1 37 1 49 8 38 16 -25 11 -86 -8 -110 -10 -13 -36 -25 -60
-30 l-42 -7 -19 66 c-41 144 -37 158 50 160 26 1 38 -4 43 -16z m-1 -82 c9
-35 3 -81 -11 -81 -7 0 -42 95 -42 114 0 4 10 6 22 4 15 -2 24 -13 31 -37z"/>
<path d="M2406 474 c-27 -27 -36 -86 -16 -99 7 -4 7 -12 0 -25 -44 -83 44
-167 132 -126 35 17 68 61 68 91 0 37 -30 73 -72 88 -26 9 -35 16 -22 16 23 1
44 19 44 37 0 48 -91 60 -134 18z m99 -14 c-2 -4 -15 -5 -28 -3 -14 3 -29 -3
-41 -16 -18 -20 -17 -20 15 -40 19 -12 41 -21 50 -21 20 0 48 -55 42 -82 -3
-10 -23 -28 -45 -39 -37 -19 -41 -19 -64 -4 -32 21 -36 66 -8 95 12 12 13 10
5 -17 -12 -41 9 -74 41 -66 25 6 58 31 58 44 0 16 -54 58 -82 64 -56 13 -59
67 -5 90 30 12 71 9 62 -5z m-5 -150 c0 -5 -7 -10 -15 -10 -8 0 -15 5 -15 10
0 6 7 10 15 10 8 0 15 -4 15 -10z"/>
</g>
</svg>
