<?xml version="1.0" encoding="UTF-8"?>
<svg xmlns="http://www.w3.org/2000/svg" viewBox="0 0 253.16 113.58">
  <defs>
    <style>
      .cls-1 {
        fill: #fff;
      }

      .cls-2 {
        fill: #424242;
      }

      .cls-3 {
        fill: #e0e0e0;
      }

      .cls-4 {
        fill: #00bcd4;
      }

      .cls-5 {
        isolation: isolate;
      }

      .cls-6 {
        fill: #212121;
      }

      .cls-7 {
        mix-blend-mode: overlay;
      }

      .cls-8 {
        fill: #f5f5f5;
      }
    </style>
  </defs>
  <g class="cls-5">
    <g id="Capa_2">
      <g id="Layer_1">
        <g>
          <g>
            <rect class="cls-4" y="12.43" width="168.62" height="53.81"/>
            <path class="cls-6" d="M168.62,66.24h-35.02V12.76h35.02V0H0v12.76h35.02v53.49H0v12.76h168.62v-12.76ZM6.78,9.89V2.87h5.75v7.02h-5.75ZM21.71,9.89V2.87h5.75v7.02h-5.75ZM36.64,9.89V2.87h5.75v7.02h-5.75ZM51.57,9.89V2.87h5.75v7.02h-5.75ZM66.5,9.89V2.87h5.75v7.02h-5.75ZM81.43,9.89V2.87h5.75v7.02h-5.75ZM96.36,9.89V2.87h5.75v7.02h-5.75ZM111.3,9.89V2.87h5.75v7.02h-5.75ZM126.23,9.89V2.87h5.75v7.02h-5.75ZM141.16,9.89V2.87h5.75v7.02h-5.75ZM156.09,9.89V2.87h5.75v7.02h-5.75ZM40.56,12.76h87.49v53.49H40.56V12.76ZM6.78,76.13v-7.02h5.75v7.02h-5.75ZM21.71,76.13v-7.02h5.75v7.02h-5.75ZM36.64,76.13v-7.02h5.75v7.02h-5.75ZM51.57,76.13v-7.02h5.75v7.02h-5.75ZM66.5,76.13v-7.02h5.75v7.02h-5.75ZM81.43,76.13v-7.02h5.75v7.02h-5.75ZM96.36,76.13v-7.02h5.75v7.02h-5.75ZM111.3,76.13v-7.02h5.75v7.02h-5.75ZM126.23,76.13v-7.02h5.75v7.02h-5.75ZM141.16,76.13v-7.02h5.75v7.02h-5.75ZM156.09,76.13v-7.02h5.75v7.02h-5.75Z"/>
          </g>
          <g>
            <path class="cls-1" d="M58.79,50.08c-.8,1.08-2.05,1.61-3.77,1.61s-2.99-.57-3.84-1.72c-.85-1.15-1.27-2.79-1.27-4.95v-10.1c0-3.45.9-5.61,2.71-6.47.67-.32,1.48-.47,2.42-.47,3.26,0,4.89,2.06,4.89,6.16v3.19h-3.41v-2.96c0-1.19-.1-2.05-.3-2.56-.2-.51-.6-.77-1.19-.77s-1,.27-1.23.82c-.23.54-.34,1.38-.34,2.5v10.83c0,1.25.11,2.14.33,2.67.22.54.62.8,1.2.8s.98-.27,1.2-.82c.22-.54.33-1.45.33-2.7v-3.32h3.46v3.28c0,2.24-.4,3.9-1.2,4.97Z"/>
            <path class="cls-1" d="M62.99,51.43v-23.18h3.53v23.18h-3.53Z"/>
            <path class="cls-1" d="M70.13,51.43v-23.18h2.77l4.91,13.91-.25-6.32v-7.59h3.17v23.18h-2.5l-5.05-14.4.2,6.09v8.31h-3.25Z"/>
            <path class="cls-1" d="M84.21,51.43v-23.18h7.77v3.04h-4.24v6.74h4.03v2.98h-4.03v7.38h4.4v3.04h-7.93Z"/>
            <path class="cls-1" d="M94.96,51.43v-23.18h2.77l4.91,13.91-.25-6.32v-7.59h3.17v23.18h-2.5l-5.05-14.4.2,6.09v8.31h-3.25Z"/>
            <path class="cls-1" d="M107.99,51.43l3.31-23.18h4.66l3.52,23.18h-3.29l-.55-4.14h-3.74l-.5,4.14h-3.4ZM115.26,44.46l-1.55-11.65h-.05l-1.42,11.65h3.03Z"/>
          </g>
        </g>
        <g>
          <circle class="cls-6" cx="186.27" cy="67.58" r="45.99" transform="translate(65.88 224.97) rotate(-72.53)"/>
          <circle class="cls-6" cx="186.27" cy="67.58" r="38.25" transform="translate(25.48 183.39) rotate(-55.7)"/>
          <path class="cls-2" d="M186.3,98.4c-11.57,0-22.07-6.38-27.38-16.65-3.78-7.31-4.5-15.65-2-23.5,2.49-7.84,7.89-14.25,15.2-18.03,4.37-2.26,9.26-3.46,14.14-3.46,11.57,0,22.07,6.38,27.38,16.65,3.78,7.31,4.5,15.65,2,23.5-2.49,7.84-7.89,14.25-15.2,18.03-4.37,2.26-9.26,3.46-14.14,3.46ZM186.25,44.77c-3.66,0-7.19.86-10.47,2.56-5.41,2.8-9.41,7.54-11.25,13.35-1.85,5.81-1.32,11.99,1.48,17.4,3.94,7.61,11.71,12.33,20.28,12.33,3.66,0,7.18-.86,10.47-2.56,5.41-2.8,9.41-7.54,11.25-13.35,1.85-5.81,1.32-11.99-1.48-17.4-3.94-7.61-11.71-12.33-20.28-12.33Z"/>
          <path class="cls-6" d="M157.37,33.5s.08-.08.24-.23c.18-.16.44-.41.77-.69.65-.58,1.64-1.35,2.92-2.29,1.3-.9,2.89-1.99,4.83-3.05,1.91-1.1,4.16-2.16,6.68-3.16,1.28-.46,2.59-.99,4.01-1.37.7-.2,1.41-.44,2.15-.61.74-.17,1.49-.34,2.25-.51.76-.19,1.54-.3,2.33-.42.79-.12,1.59-.26,2.4-.36.82-.07,1.64-.13,2.47-.2.42-.03.83-.07,1.25-.1.42,0,.84,0,1.27-.01.85,0,1.71,0,2.57-.01.93,0,1.69.07,2.55.1,1.66.09,3.49.23,5.2.43,3.48.38,7,.98,10.47,1.74,3.47.76,6.88,1.7,10.17,2.64,1.64.46,3.26.93,4.81,1.31.39.1.77.17,1.15.26l.29.06.07.02c-.14-.03-.02,0-.04,0h.04s.15.03.15.03l.61.11c.39.06.84.16,1.19.19l1.06.11c2.92.24,5.83.01,8.31-.75,2.51-.73,4.56-2,5.93-3.49.64-.77,1.19-1.55,1.5-2.39l.07-.15.04-.07v-.02c-.01.06.06-.15-.03.12l.02-.05.13-.42c.09-.28.17-.55.26-.82.04-.4.15-.68.18-1.1.17-1.61-.09-3.02-.51-4.15-.41-1.13-.92-1.96-1.28-2.49-.37-.53-.58-.74-.51-.67l4.12-3.79c.07.08.45.5,1,1.32.55.82,1.28,2.05,1.89,3.79.61,1.72,1.04,4.03.71,6.65-.05.63-.26,1.41-.43,2.12-.09.27-.18.54-.27.81l-.14.41-.02.05c-.1.29-.04.1-.06.17v.03s-.07.13-.07.13l-.12.25c-.57,1.38-1.47,2.67-2.52,3.87-2.19,2.33-5.18,4.01-8.41,4.9-1.62.46-3.31.76-5.03.88-1.73.15-3.46.09-5.26-.08-.46-.06-.92-.11-1.38-.17-.47-.06-.83-.15-1.25-.22l-.61-.11-.15-.03-.23-.05-.32-.08c-.43-.1-.87-.2-1.28-.31-1.7-.44-3.33-.94-4.98-1.43-3.27-.99-6.54-1.94-9.85-2.71-3.31-.78-6.64-1.39-9.95-1.8-.83-.11-1.65-.21-2.46-.27-.81-.08-1.61-.17-2.46-.21-.81-.04-1.72-.13-2.44-.14-.79,0-1.58-.01-2.35-.02-.39,0-.78,0-1.16,0-.38.03-.77.05-1.15.08-.76.05-1.52.1-2.27.15-.74.1-1.48.2-2.2.3-.73.1-1.44.19-2.14.36-.7.15-1.39.29-2.07.44-.68.14-1.33.36-1.98.54-1.31.33-2.52.8-3.7,1.2-2.33.89-4.42,1.84-6.2,2.82-1.8.95-3.27,1.93-4.48,2.74-1.18.84-2.08,1.53-2.66,2.03-.3.25-.49.42-.63.54-.15.14-.22.21-.22.21l-2.77-2.89Z"/>
          <g>
            <path class="cls-3" d="M224.08,48.64c-10.49-20.81-35.86-29.17-56.66-18.68-20.81,10.49-29.17,35.86-18.68,56.66s35.86,29.17,56.66,18.68c20.81-10.49,29.17-35.86,18.68-56.67ZM188.96,66.34c.71,1.41.14,3.13-1.27,3.84s-3.13.14-3.84-1.27c-.71-1.41-.14-3.13,1.27-3.84,1.41-.71,3.13-.14,3.84,1.27ZM196.24,34.38c5.99-1.02,11.67,3.01,12.69,9,1.02,5.99-3.01,11.67-9,12.69-5.99,1.02-11.67-3.01-12.69-9s3.01-11.67,9-12.69ZM170.16,60.6c-5.99,1.02-11.67-3.01-12.69-9-1.02-5.99,3.01-11.67,9-12.69,5.99-1.02,11.67,3.01,12.69,9,1.02,5.99-3.01,11.67-9,12.69ZM165.39,90.38c-5.99,1.02-11.67-3.01-12.69-9-1.02-5.99,3.01-11.67,9-12.69,5.99-1.02,11.67,3.01,12.69,9,1.02,5.99-3.01,11.67-9,12.69ZM209.71,61.44c5.99-1.02,11.67,3.01,12.69,9,1.02,5.99-3.01,11.67-9,12.69s-11.67-3.01-12.69-9,3.01-11.67,9-12.69ZM179.77,95.21c-1.02-5.99,3.01-11.67,9-12.69,5.99-1.02,11.67,3.01,12.69,9,1.02,5.99-3.01,11.67-9,12.69-5.99,1.02-11.67-3.01-12.69-9Z"/>
            <path d="M186.44,110.33s0,0,0,0c-16.23,0-30.85-9-38.15-23.48-5.13-10.18-5.99-21.75-2.42-32.58,3.57-10.83,11.15-19.62,21.33-24.75,6.03-3.04,12.48-4.58,19.18-4.58,16.23,0,30.85,9,38.15,23.48,5.13,10.18,5.99,21.75,2.42,32.58-3.57,10.83-11.14,19.62-21.33,24.75-6.03,3.04-12.48,4.58-19.18,4.58ZM186.37,25.93c-6.54,0-12.85,1.5-18.73,4.47-9.94,5.01-17.34,13.6-20.83,24.17-3.49,10.58-2.65,21.88,2.37,31.82,7.13,14.15,21.41,22.93,37.26,22.93,6.54,0,12.85-1.5,18.73-4.47,9.94-5.01,17.34-13.6,20.83-24.17,3.49-10.58,2.65-21.88-2.37-31.82-7.13-14.15-21.41-22.93-37.26-22.93ZM190.6,104.87c-5.62,0-10.38-4.03-11.32-9.57-1.06-6.25,3.16-12.2,9.41-13.26.64-.11,1.29-.16,1.94-.16,5.62,0,10.38,4.03,11.32,9.57.51,3.03-.18,6.08-1.96,8.58-1.78,2.5-4.42,4.17-7.45,4.68-.64.11-1.29.16-1.94.16ZM190.62,82.86c-.59,0-1.19.05-1.77.15-5.71.97-9.56,6.4-8.59,12.11.86,5.07,5.21,8.74,10.34,8.74.59,0,1.19-.05,1.77-.15,2.77-.47,5.18-1.99,6.8-4.28,1.62-2.29,2.26-5.07,1.79-7.83-.86-5.07-5.21-8.74-10.34-8.74ZM163.54,91.03c-5.62,0-10.38-4.03-11.32-9.57-1.06-6.25,3.16-12.2,9.41-13.26.64-.11,1.29-.16,1.94-.16,5.62,0,10.38,4.03,11.32,9.57,1.06,6.25-3.16,12.2-9.41,13.26-.64.11-1.29.16-1.94.16ZM163.56,69.03c-.59,0-1.19.05-1.77.15-5.71.97-9.56,6.4-8.59,12.11.86,5.07,5.21,8.74,10.34,8.74.59,0,1.19-.05,1.77-.15,5.71-.97,9.56-6.4,8.59-12.11-.86-5.07-5.21-8.74-10.34-8.74ZM211.54,83.78c-5.62,0-10.38-4.03-11.32-9.57-1.06-6.25,3.16-12.2,9.41-13.26.64-.11,1.29-.16,1.94-.16,5.62,0,10.38,4.03,11.32,9.57.51,3.03-.18,6.08-1.96,8.58-1.78,2.5-4.42,4.17-7.45,4.68-.64.11-1.29.16-1.94.16ZM211.57,61.78c-.59,0-1.19.05-1.77.15-5.71.97-9.56,6.4-8.59,12.11.86,5.07,5.21,8.74,10.34,8.74.59,0,1.19-.05,1.77-.15,2.77-.47,5.18-1.99,6.8-4.28,1.62-2.29,2.26-5.07,1.79-7.83-.86-5.07-5.21-8.74-10.34-8.74ZM186.41,70.99c-1.28,0-2.43-.71-3-1.85-.4-.8-.47-1.71-.19-2.57.28-.85.88-1.54,1.68-1.95.47-.24.98-.36,1.51-.36,1.28,0,2.43.71,3,1.85.83,1.66.17,3.68-1.49,4.52-.47.24-.98.36-1.51.36ZM186.41,65.27c-.37,0-.73.08-1.06.25-.56.28-.98.77-1.18,1.37-.2.6-.15,1.24.13,1.8.57,1.13,2.03,1.62,3.17,1.05,1.16-.59,1.63-2.01,1.05-3.17-.4-.8-1.21-1.3-2.11-1.3ZM168.3,61.26c-5.62,0-10.38-4.03-11.32-9.57-1.06-6.25,3.16-12.2,9.41-13.26.64-.11,1.29-.16,1.94-.16,5.62,0,10.38,4.03,11.32,9.57.51,3.03-.18,6.08-1.96,8.58-1.78,2.5-4.42,4.17-7.45,4.68-.64.11-1.29.16-1.94.16ZM168.33,39.26c-.59,0-1.19.05-1.77.15-5.71.97-9.56,6.4-8.59,12.11.86,5.07,5.21,8.74,10.34,8.74.59,0,1.19-.05,1.77-.15,2.76-.47,5.18-1.99,6.8-4.28,1.62-2.29,2.26-5.07,1.79-7.83-.86-5.07-5.21-8.74-10.34-8.74ZM198.06,56.72c-5.62,0-10.38-4.03-11.32-9.57-.51-3.03.18-6.08,1.96-8.58,1.78-2.5,4.42-4.17,7.45-4.68.64-.11,1.29-.16,1.94-.16,5.62,0,10.38,4.03,11.32,9.57,1.06,6.25-3.16,12.2-9.41,13.26-.64.11-1.29.16-1.94.16ZM198.09,34.72c-.59,0-1.19.05-1.77.15-2.77.47-5.18,1.99-6.8,4.27-1.62,2.29-2.26,5.07-1.79,7.83.86,5.07,5.21,8.74,10.34,8.74.59,0,1.19-.05,1.77-.15,5.71-.97,9.56-6.4,8.59-12.11-.86-5.07-5.21-8.74-10.34-8.74Z"/>
          </g>
          <g class="cls-7">
            <path class="cls-8" d="M172.15,45.39c1.8,3.48.44,7.76-3.04,9.57-3.48,1.8-7.76.44-9.57-3.04-1.8-3.48-.44-7.76,3.04-9.57,3.48-1.8,7.76-.44,9.57,3.04Z"/>
          </g>
          <g class="cls-7">
            <path class="cls-8" d="M201.08,40.75c1.7,3.29.42,7.33-2.87,9.03s-7.33.42-9.03-2.87-.42-7.33,2.87-9.03c3.29-1.7,7.33-.42,9.03,2.87Z"/>
          </g>
          <g class="cls-7">
            <path class="cls-8" d="M214.58,68.64c1.7,3.29.42,7.33-2.87,9.03-3.29,1.7-7.33.42-9.03-2.87-1.7-3.29-.42-7.33,2.87-9.03,3.29-1.7,7.33-.42,9.03,2.87Z"/>
          </g>
          <g class="cls-7">
            <path class="cls-8" d="M193.51,89.33c1.7,3.29.42,7.33-2.87,9.03-3.29,1.7-7.33.42-9.03-2.87-1.7-3.29-.42-7.33,2.87-9.03,3.29-1.7,7.33-.42,9.03,2.87Z"/>
          </g>
          <g class="cls-7">
            <path class="cls-8" d="M166.97,75.08c1.8,3.48.44,7.76-3.04,9.57-3.48,1.8-7.76.44-9.57-3.04-1.8-3.48-.44-7.76,3.04-9.57,3.48-1.8,7.76-.44,9.57,3.04Z"/>
          </g>
        </g>
      </g>
    </g>
  </g>
</svg>