<?xml version="1.0" encoding="UTF-8"?>
<svg xmlns="http://www.w3.org/2000/svg" version="1.1" viewBox="0 0 105 105">
  <defs>
    <style>
      .cls-1 {
        fill: #03447e;
      }

      .cls-2 {
        fill: #d8e6f9;
        opacity: .5;
      }
    </style>
  </defs>
  <!-- Generator: Adobe Illustrator 28.7.1, SVG Export Plug-In . SVG Version: 1.2.0 Build 142)  -->
  <g>
    <g id="Capa_1">
      <path class="cls-2" d="M52.5,90.8h0c-21.1,0-38.3-17.2-38.3-38.3h0c0-21.1,17.2-38.3,38.3-38.3h0c21.1,0,38.3,17.2,38.3,38.3h0c0,21.1-17.2,38.3-38.3,38.3Z"/>
      <path class="cls-1" d="M105,49.5h-9.1c-1.5-21.6-18.7-38.9-40.4-40.4V0h-6v9.1C27.9,10.6,10.6,27.9,9.1,49.5H0v6h9.1c1.5,21.6,18.7,38.9,40.4,40.4v9.1h6v-9.1c21.6-1.5,38.9-18.7,40.4-40.4h9.1v-6ZM52.5,90.2h0c-20.8,0-37.7-16.9-37.7-37.7h0c0-20.8,16.9-37.7,37.7-37.7h0c20.8,0,37.7,16.9,37.7,37.7h0c0,20.8-16.9,37.7-37.7,37.7Z"/>
    </g>
  </g>
</svg>